<svg width="169" height="40" viewBox="0 0 169 40" fill="none" xmlns="http://www.w3.org/2000/svg">
<path d="M39.9999 0H20.8281V19.1846H39.9999V0ZM27.0561 3.24882C27.4239 3.24882 27.7766 3.39492 28.0367 3.655C28.2968 3.91509 28.4429 4.26783 28.4429 4.63564C28.4429 5.00346 28.2968 5.35622 28.0367 5.6163C27.7766 5.87639 27.4239 6.02249 27.0561 6.02249C26.6883 6.02249 26.3355 5.87639 26.0754 5.6163C25.8154 5.35622 25.6693 5.00346 25.6693 4.63564C25.6693 4.26783 25.8154 3.91509 26.0754 3.655C26.3355 3.39492 26.6883 3.24882 27.0561 3.24882ZM35.2359 15.8074H32.4494V11.8524L35.2359 9.28414V15.8074ZM35.2359 7.04978L32.3466 9.78492L29.1107 12.7127L25.6693 15.8074V7.56344H28.4558V9.69507L35.2359 3.27449V7.04978Z" fill="white"/>
<path d="M19.1846 0H0V19.1846H19.1846V0ZM5.95826 15.7946H3.21028L7.20385 7.79457L8.57786 10.5426L5.95826 15.7946ZM13.0337 15.7946L8.11556 5.94544L9.47671 3.23597L15.7432 15.7946H13.0337Z" fill="white"/>
<path d="M39.9999 20.8284H20.8281V40.0001H39.9999V20.8284ZM24.2182 36.7642L28.2246 28.777L29.5986 31.5122L26.9662 36.7642H24.2182ZM30.4847 36.0965C30.1169 36.0965 29.7641 35.9503 29.504 35.6903C29.2439 35.4302 29.0978 35.0774 29.0978 34.7096C29.0978 34.3418 29.2439 33.9891 29.504 33.729C29.7641 33.4689 30.1169 33.3228 30.4847 33.3228C30.8525 33.3228 31.2052 33.4689 31.4653 33.729C31.7254 33.9891 31.8715 34.3418 31.8715 34.7096C31.8715 35.0774 31.7254 35.4302 31.4653 35.6903C31.2052 35.9503 30.8525 36.0965 30.4847 36.0965ZM34.0545 36.7642L29.1363 26.9151L30.4847 24.2056L36.764 36.7642H34.0545Z" fill="white"/>
<path d="M19.1846 20.8284H0V40.0001H19.1846V20.8284ZM7.62759 36.7642H4.80257V28.4945H7.62759V36.7642ZM6.2151 27.0435C5.93572 27.0435 5.66261 26.9606 5.43032 26.8054C5.19803 26.6502 5.01701 26.4296 4.9101 26.1715C4.80319 25.9134 4.77518 25.6294 4.82968 25.3554C4.88419 25.0814 5.01873 24.8297 5.21627 24.6322C5.41382 24.4346 5.66552 24.3001 5.93953 24.2456C6.21353 24.1911 6.49751 24.219 6.75562 24.3259C7.01372 24.4328 7.23435 24.6139 7.38956 24.8462C7.54477 25.0785 7.62759 25.3516 7.62759 25.631C7.62765 26.0012 7.48238 26.3566 7.22301 26.6208C6.96364 26.885 6.61092 27.0367 6.24076 27.0435H6.2151ZM14.1124 27.0435H9.07864V24.1671H14.1124V27.0435Z" fill="white"/>
<path d="M48.0771 3.30005V15.833H57.5796V18.337H60.0965V13.4317H58.517V3.30005H55.6534V13.4317H50.9536V3.30005H48.0771Z" fill="white"/>
<path d="M69.83 7.69171H69.9456V15.833H72.8091V3.30005H69.8557L65.2457 11.4542H65.143V3.30005H62.2666V15.833H65.2072L69.83 7.69171Z" fill="white"/>
<path d="M89.1812 9.13005C89.1727 8.41825 89.0184 7.71574 88.728 7.06582C88.4376 6.41591 88.0172 5.83235 87.4926 5.35111C86.9681 4.86988 86.3505 4.50118 85.6781 4.2677C85.0056 4.03423 84.2924 3.94093 83.5825 3.99358H83.4541V2.70947H80.5777V3.99358H80.4493C79.74 3.94087 79.0274 4.0342 78.3557 4.2678C77.6839 4.50141 77.0672 4.87032 76.5436 5.35174C76.0201 5.83316 75.6009 6.41685 75.3119 7.06672C75.0229 7.7166 74.8702 8.41885 74.8634 9.13005C74.8586 9.852 75.0021 10.5672 75.2848 11.2315C75.5675 11.8958 75.9836 12.495 76.5071 12.9921C77.0307 13.4892 77.6507 13.8736 78.3287 14.1215C79.0068 14.3694 79.7286 14.4756 80.4493 14.4334H80.5777V16.0514H83.4541V14.4334H83.5825C84.3039 14.4755 85.0262 14.3694 85.7049 14.1216C86.3837 13.8738 87.0044 13.4897 87.529 12.9928C88.0536 12.4959 88.4708 11.8968 88.755 11.2324C89.0391 10.5681 89.1842 9.8526 89.1812 9.13005ZM80.5777 12.0835H80.4493C80.0793 12.0671 79.7162 11.9774 79.3811 11.8197C79.046 11.6619 78.7455 11.4392 78.497 11.1645C78.2486 10.8898 78.0571 10.5686 77.9338 10.2193C77.8104 9.87009 77.7576 9.49985 77.7783 9.13005C77.7663 8.76997 77.8263 8.4111 77.9547 8.07446C78.083 7.73783 78.2773 7.43016 78.526 7.1695C78.7747 6.90883 79.0729 6.70039 79.4031 6.55636C79.7334 6.41233 80.089 6.3356 80.4493 6.33068H80.5777V12.0835ZM83.5825 12.0835H83.4541V6.33068H83.5825C83.9428 6.3356 84.2984 6.41233 84.6286 6.55636C84.9589 6.70039 85.2571 6.90883 85.5058 7.1695C85.7545 7.43016 85.9487 7.73783 86.0771 8.07446C86.2055 8.4111 86.2654 8.76997 86.2535 9.13005C86.276 9.50024 86.2244 9.87118 86.1016 10.2212C85.9789 10.5711 85.7876 10.8931 85.5388 11.1682C85.2901 11.4433 84.9889 11.6659 84.6529 11.8231C84.317 11.9803 83.9531 12.0688 83.5825 12.0835Z" fill="white"/>
<path d="M100.443 7.57614C100.484 7.02473 100.41 6.4708 100.225 5.94967C100.04 5.42853 99.7488 4.95162 99.3695 4.54932C98.9901 4.14703 98.5311 3.82818 98.0217 3.61308C97.5123 3.39799 96.9637 3.29139 96.4109 3.30005H91.2744V15.833H94.1508V11.8779H96.4622C97.0126 11.8778 97.5569 11.7639 98.0612 11.5434C98.5654 11.323 99.0187 11.0007 99.3924 10.5967C99.7662 10.1928 100.052 9.71599 100.233 9.19619C100.414 8.6764 100.485 8.12484 100.443 7.57614ZM94.0995 9.45095V5.72702H95.8202C96.0593 5.7154 96.2981 5.75659 96.5196 5.84766C96.741 5.93873 96.9397 6.07744 97.1015 6.25394C97.2633 6.43045 97.3842 6.6404 97.4557 6.86892C97.5272 7.09743 97.5475 7.3389 97.5152 7.57614C97.5456 7.81861 97.5224 8.06479 97.4473 8.29732C97.3722 8.52985 97.2469 8.74307 97.0803 8.92188C96.9138 9.10069 96.71 9.24072 96.4834 9.33214C96.2567 9.42356 96.0128 9.46414 95.7688 9.45095H94.0995Z" fill="white"/>
<path d="M108.264 3.0819C107.406 3.0523 106.551 3.19705 105.751 3.50742C104.951 3.81779 104.222 4.28732 103.608 4.88756C102.995 5.48781 102.509 6.2063 102.182 6.99954C101.854 7.79278 101.691 8.64424 101.702 9.50244C101.702 11.2427 102.393 12.9118 103.624 14.1424C104.854 15.373 106.523 16.0643 108.264 16.0643C110.004 16.0643 111.673 15.373 112.903 14.1424C114.134 12.9118 114.825 11.2427 114.825 9.50244C114.836 8.64424 114.673 7.79278 114.345 6.99954C114.018 6.2063 113.532 5.48781 112.919 4.88756C112.305 4.28732 111.576 3.81779 110.776 3.50742C109.976 3.19705 109.121 3.0523 108.264 3.0819ZM108.264 13.4447C107.768 13.4233 107.281 13.3037 106.831 13.0928C106.382 12.8819 105.979 12.5838 105.646 12.2159C105.312 11.8479 105.055 11.4175 104.89 10.9495C104.724 10.4815 104.653 9.98529 104.681 9.48962C104.681 8.53944 105.058 7.62816 105.73 6.95628C106.402 6.2844 107.313 5.90694 108.264 5.90694C109.214 5.90694 110.125 6.2844 110.797 6.95628C111.469 7.62816 111.846 8.53944 111.846 9.48962C111.876 9.98568 111.806 10.4826 111.641 10.9513C111.476 11.4201 111.219 11.8512 110.885 12.2195C110.552 12.5878 110.148 12.8858 109.698 13.0962C109.248 13.3066 108.76 13.4251 108.264 13.4447Z" fill="white"/>
<path d="M121.644 3.30005H117.072V15.833H121.644C123.069 15.833 126.382 15.4734 126.382 12.1476C126.41 11.5427 126.238 10.9454 125.892 10.4485C125.546 9.95155 125.046 9.58283 124.469 9.39958H124.379V9.18126H124.443C124.882 8.91313 125.243 8.53519 125.49 8.08476C125.738 7.63434 125.864 7.12705 125.856 6.61306C125.856 4.50712 124.289 3.30005 121.644 3.30005ZM119.936 5.72702H121.631C121.804 5.70637 121.981 5.72538 122.146 5.78261C122.311 5.83984 122.461 5.93381 122.585 6.05743C122.708 6.18105 122.802 6.3311 122.859 6.4963C122.917 6.66149 122.936 6.83753 122.915 7.01113C122.926 7.1827 122.901 7.35471 122.84 7.51566C122.78 7.6766 122.686 7.82275 122.564 7.94433C122.442 8.06592 122.296 8.16013 122.135 8.22065C121.974 8.28117 121.802 8.30659 121.631 8.29524H119.884L119.936 5.72702ZM121.952 13.4317H119.936V10.5296H121.965C122.16 10.5126 122.356 10.5379 122.54 10.6036C122.724 10.6693 122.892 10.774 123.032 10.9105C123.173 11.047 123.282 11.2121 123.352 11.3946C123.423 11.577 123.453 11.7725 123.441 11.9678C123.447 12.1626 123.412 12.3566 123.339 12.5371C123.265 12.7176 123.155 12.8808 123.015 13.0162C122.874 13.1516 122.707 13.2562 122.524 13.3233C122.341 13.3904 122.146 13.4186 121.952 13.406V13.4317Z" fill="white"/>
<path d="M134.511 3.0819C133.653 3.0523 132.798 3.19705 131.998 3.50742C131.198 3.81779 130.469 4.28732 129.855 4.88756C129.242 5.48781 128.757 6.2063 128.429 6.99954C128.101 7.79278 127.938 8.64424 127.949 9.50244C127.91 10.3877 128.05 11.2718 128.362 12.1013C128.674 12.9308 129.15 13.6885 129.763 14.3288C130.375 14.9691 131.111 15.4787 131.926 15.8268C132.741 16.175 133.618 16.3545 134.504 16.3545C135.39 16.3545 136.267 16.175 137.082 15.8268C137.897 15.4787 138.633 14.9691 139.246 14.3288C139.858 13.6885 140.335 12.9308 140.646 12.1013C140.958 11.2718 141.099 10.3877 141.06 9.50244C141.07 8.64536 140.907 7.79499 140.581 7.00264C140.254 6.21028 139.77 5.49239 139.158 4.89233C138.545 4.29226 137.818 3.82247 137.019 3.5113C136.221 3.20014 135.367 3.05407 134.511 3.0819ZM134.511 13.4447C134.014 13.425 133.526 13.3066 133.076 13.0962C132.626 12.8858 132.222 12.5878 131.889 12.2195C131.555 11.8512 131.298 11.4201 131.133 10.9513C130.968 10.4826 130.899 9.98568 130.928 9.48962C130.928 8.53944 131.305 7.62816 131.977 6.95628C132.649 6.2844 133.56 5.90694 134.511 5.90694C135.461 5.90694 136.372 6.2844 137.044 6.95628C137.716 7.62816 138.093 8.53944 138.093 9.48962C138.121 9.98529 138.05 10.4815 137.884 10.9495C137.719 11.4175 137.462 11.8479 137.128 12.2159C136.795 12.5838 136.392 12.8819 135.943 13.0928C135.493 13.3037 135.007 13.4233 134.511 13.4447Z" fill="white"/>
<path d="M145.49 1.3355V1.24561H147.725V1.36119C147.754 1.62862 147.881 1.87586 148.081 2.05548C148.281 2.23511 148.541 2.33446 148.81 2.33446C149.079 2.33446 149.338 2.23511 149.538 2.05548C149.739 1.87586 149.866 1.62862 149.895 1.36119V1.24561H152.116V1.3355C152.116 3.05621 150.575 4.01929 148.816 4.01929C147.057 4.01929 145.49 3.05621 145.49 1.3355Z" fill="white"/>
<path d="M150.87 7.69171H150.986V15.833H153.849V3.30005H150.896L146.286 11.4542H146.183V3.30005H143.307V15.833H146.26L150.87 7.69171Z" fill="white"/>
<path d="M59.5698 30.3565C59.6042 29.5041 59.4617 28.6539 59.1512 27.8593C58.8407 27.0648 58.3689 26.3432 57.7657 25.74C57.1625 25.1368 56.4409 24.6651 55.6464 24.3546C54.8518 24.0441 54.0016 23.9015 53.1492 23.9359C51.3689 23.88 49.6368 24.5202 48.321 25.7208L49.6051 27.8653C50.5268 27.0144 51.7281 26.5302 52.9823 26.5042C53.7808 26.447 54.5738 26.6731 55.2221 27.1428C55.8703 27.6126 56.3322 28.2958 56.5265 29.0724V29.2393H51.1846V31.4737H56.5008V31.6406C56.3248 32.4304 55.872 33.1312 55.2244 33.6163C54.5767 34.1015 53.7769 34.339 52.9695 34.2859C51.6921 34.2728 50.4584 33.8192 49.4767 33.0018L48.0898 35.0306C49.4275 36.2279 51.1615 36.8867 52.9566 36.8798C53.8246 36.9059 54.6888 36.7558 55.4971 36.4383C56.3053 36.1209 57.0408 35.6429 57.659 35.0331C58.2772 34.4233 58.7652 33.6944 59.0937 32.8906C59.4221 32.0868 59.5841 31.2247 59.5698 30.3565Z" fill="white"/>
<path d="M68.8928 36.687H72.0903L68.5333 30.1765V30.1123L71.8977 24.1541H68.8286L66.1834 29.085H64.6938V24.1541H61.8174V36.687H64.6938V31.4992H66.1834L68.8928 36.687Z" fill="white"/>
<path d="M79.4354 23.9359C78.5776 23.9063 77.7228 24.051 76.9226 24.3614C76.1224 24.6718 75.3935 25.1413 74.7801 25.7416C74.1666 26.3418 73.6814 27.0603 73.3537 27.8535C73.0259 28.6468 72.8626 29.4983 72.8736 30.3565C72.8736 32.0968 73.5649 33.7658 74.7955 34.9964C76.026 36.2269 77.6951 36.9183 79.4354 36.9183C81.1757 36.9183 82.8447 36.2269 84.0752 34.9964C85.3058 33.7658 85.9971 32.0968 85.9971 30.3565C86.0081 29.4983 85.8448 28.6468 85.5171 27.8535C85.1893 27.0603 84.7041 26.3418 84.0906 25.7416C83.4772 25.1413 82.7483 24.6718 81.9481 24.3614C81.1479 24.051 80.2931 23.9063 79.4354 23.9359ZM79.4354 34.2987C78.9394 34.2774 78.4526 34.1577 78.0032 33.9468C77.5538 33.7358 77.1508 33.4378 76.8175 33.0698C76.4842 32.7019 76.2273 32.2715 76.0617 31.8035C75.8961 31.3355 75.825 30.8393 75.8527 30.3436C75.8527 29.3934 76.2301 28.4821 76.902 27.8103C77.5739 27.1384 78.4852 26.7609 79.4354 26.7609C80.3855 26.7609 81.2968 27.1384 81.9687 27.8103C82.6406 28.4821 83.018 29.3934 83.018 30.3436C83.0457 30.8393 82.9746 31.3355 82.809 31.8035C82.6434 32.2715 82.3865 32.7019 82.0532 33.0698C81.7199 33.4378 81.3169 33.7358 80.8675 33.9468C80.4181 34.1577 79.9313 34.2774 79.4354 34.2987Z" fill="white"/>
<path d="M99.4285 36.687V24.1541H96.5649V29.2648H91.0561V24.1541H88.1797V36.687H91.0561V31.679H96.5649V36.687H99.4285Z" fill="white"/>
<path d="M108.238 23.9359C107.38 23.9063 106.525 24.051 105.725 24.3614C104.925 24.6718 104.196 25.1413 103.583 25.7416C102.969 26.3418 102.484 27.0603 102.156 27.8535C101.829 28.6468 101.665 29.4983 101.676 30.3565C101.676 32.0968 102.368 33.7658 103.598 34.9964C104.829 36.2269 106.498 36.9183 108.238 36.9183C109.978 36.9183 111.647 36.2269 112.878 34.9964C114.109 33.7658 114.8 32.0968 114.8 30.3565C114.811 29.4983 114.648 28.6468 114.32 27.8535C113.992 27.0603 113.507 26.3418 112.893 25.7416C112.28 25.1413 111.551 24.6718 110.751 24.3614C109.951 24.051 109.096 23.9063 108.238 23.9359ZM108.238 34.2987C107.742 34.2774 107.255 34.1577 106.806 33.9468C106.357 33.7358 105.954 33.4378 105.62 33.0698C105.287 32.7019 105.03 32.2715 104.864 31.8035C104.699 31.3355 104.628 30.8393 104.655 30.3436C104.655 29.3934 105.033 28.4821 105.705 27.8103C106.377 27.1384 107.288 26.7609 108.238 26.7609C109.188 26.7609 110.1 27.1384 110.771 27.8103C111.443 28.4821 111.821 29.3934 111.821 30.3436C111.848 30.8393 111.777 31.3355 111.612 31.8035C111.446 32.2715 111.189 32.7019 110.856 33.0698C110.523 33.4378 110.12 33.7358 109.67 33.9468C109.221 34.1577 108.734 34.2774 108.238 34.2987Z" fill="white"/>
<path d="M127.332 36.687H130.196L129.182 24.1541H125.997L123.506 31.6661H123.262L120.771 24.1541H117.586L116.546 36.687H119.435L119.808 28.7769H120.077L122.132 34.6196H124.636L126.69 28.7769H126.96L127.332 36.687Z" fill="white"/>
<path d="M153.22 36.687H156.43L152.873 30.1765V30.1123L156.238 24.1541H153.169L150.523 29.085H149.034V24.1541H146.157V36.687H149.034V31.4992H150.523L153.22 36.687Z" fill="white"/>
<path d="M165.792 28.5457H165.908V36.687H168.771V24.1541H165.818L161.208 32.3082H161.105V24.1541H158.229V36.687H161.169L165.792 28.5457Z" fill="white"/>
<path d="M140.237 28.5457H140.34V36.687H143.216V24.1541H140.25L135.653 32.3082H135.537V24.1541H132.674V36.687H135.614L140.237 28.5457Z" fill="white"/>
</svg>
