<svg width="178" height="42" viewBox="0 0 178 42" fill="none" xmlns="http://www.w3.org/2000/svg">
<path d="M41.9995 0H21.8691V20.1438H41.9995V0ZM28.4085 3.41126C28.7947 3.41126 29.1651 3.56466 29.4381 3.83775C29.7112 4.11083 29.8647 4.48121 29.8647 4.86742C29.8647 5.25362 29.7112 5.62402 29.4381 5.89711C29.1651 6.17019 28.7947 6.3236 28.4085 6.3236C28.0223 6.3236 27.6519 6.17019 27.3788 5.89711C27.1057 5.62402 26.9523 5.25362 26.9523 4.86742C26.9523 4.48121 27.1057 4.11083 27.3788 3.83775C27.6519 3.56466 28.0223 3.41126 28.4085 3.41126ZM36.9972 16.5978H34.0714V12.445L36.9972 9.74833V16.5978ZM36.9972 7.40226L33.9635 10.2742L30.5658 13.3483L26.9523 16.5978V7.94159H29.8781V10.1798L36.9972 3.43821V7.40226Z" fill="#1D1D1B"/>
<path d="M20.1438 0H0V20.1438H20.1438V0ZM6.25616 16.5843H3.37079L7.56403 8.18428L9.00673 11.0697L6.25616 16.5843ZM13.6854 16.5843L8.52132 6.2427L9.95053 3.39776L16.5303 16.5843H13.6854Z" fill="#1D1D1B"/>
<path d="M41.9995 21.8696H21.8691V42H41.9995V21.8696ZM25.4287 38.6022L29.6354 30.2157L31.0782 33.0876L28.3141 38.6022H25.4287ZM32.0085 37.9011C31.6223 37.9011 31.2519 37.7477 30.9788 37.4746C30.7057 37.2015 30.5523 36.8311 30.5523 36.4449C30.5523 36.0587 30.7057 35.6883 30.9788 35.4152C31.2519 35.1422 31.6223 34.9887 32.0085 34.9887C32.3947 34.9887 32.7651 35.1422 33.0382 35.4152C33.3113 35.6883 33.4647 36.0587 33.4647 36.4449C33.4647 36.8311 33.3113 37.2015 33.0382 37.4746C32.7651 37.7477 32.3947 37.9011 32.0085 37.9011ZM35.7568 38.6022L30.5927 28.2607L32.0085 25.4157L38.6017 38.6022H35.7568Z" fill="#1D1D1B"/>
<path d="M20.1438 21.8696H0V42H20.1438V21.8696ZM8.00895 38.6022H5.04268V29.9191H8.00895V38.6022ZM6.52584 28.3955C6.2325 28.3955 5.94572 28.3085 5.70182 28.1455C5.45792 27.9826 5.26785 27.7509 5.15559 27.4799C5.04334 27.2089 5.01393 26.9107 5.07116 26.623C5.12839 26.3353 5.26965 26.071 5.47708 25.8636C5.6845 25.6562 5.94879 25.5149 6.23649 25.4577C6.52419 25.4004 6.82237 25.4298 7.09338 25.5421C7.36439 25.6543 7.59605 25.8444 7.75902 26.0883C7.92199 26.3322 8.00895 26.619 8.00895 26.9124C8.00902 27.3011 7.85649 27.6743 7.58415 27.9517C7.31181 28.229 6.94145 28.3884 6.55279 28.3955H6.52584ZM14.818 28.3955H9.53255V25.3753H14.818V28.3955Z" fill="#1D1D1B"/>
<path d="M50.4805 3.46509V16.6247H60.458V19.2538H63.1007V14.1033H61.4423V3.46509H58.4356V14.1033H53.5007V3.46509H50.4805Z" fill="#1D1D1B"/>
<path d="M73.3224 8.07632H73.4438V16.6247H76.4505V3.46509H73.3494L68.509 12.0269H68.4011V3.46509H65.3809V16.6247H68.4685L73.3224 8.07632Z" fill="#1D1D1B"/>
<path d="M93.6412 9.58657C93.6322 8.83918 93.4703 8.10154 93.1653 7.41913C92.8604 6.73672 92.419 6.12398 91.8682 5.61869C91.3174 5.1134 90.669 4.72626 89.9629 4.48111C89.2568 4.23596 88.508 4.138 87.7626 4.19329H87.6278V2.84497H84.6076V4.19329H84.4727C83.728 4.13793 82.9798 4.23593 82.2744 4.48121C81.5691 4.7265 80.9215 5.11386 80.3718 5.61935C79.8221 6.12484 79.3819 6.73771 79.0784 7.42008C78.775 8.10244 78.6147 8.8398 78.6075 9.58657C78.6026 10.3446 78.7531 11.0956 79.05 11.7931C79.3469 12.4906 79.7837 13.1198 80.3335 13.6418C80.8832 14.1637 81.5342 14.5673 82.2462 14.8276C82.9581 15.0879 83.716 15.1994 84.4727 15.1551H84.6076V16.854H87.6278V15.1551H87.7626C88.52 15.1993 89.2784 15.0879 89.9911 14.8277C90.7038 14.5675 91.3556 14.1642 91.9064 13.6424C92.4572 13.1207 92.8953 12.4916 93.1937 11.7941C93.492 11.0965 93.6444 10.3452 93.6412 9.58657ZM84.6076 12.6877H84.4727C84.0842 12.6704 83.703 12.5763 83.3511 12.4107C82.9992 12.245 82.6837 12.0112 82.4228 11.7228C82.162 11.4343 81.961 11.097 81.8314 10.7303C81.7019 10.3636 81.6464 9.97486 81.6682 9.58657C81.6556 9.20848 81.7186 8.83167 81.8534 8.4782C81.9882 8.12473 82.1921 7.80169 82.4533 7.52799C82.7144 7.25429 83.0275 7.03543 83.3743 6.8842C83.721 6.73296 84.0945 6.6524 84.4727 6.64723H84.6076V12.6877ZM87.7626 12.6877H87.6278V6.64723H87.7626C88.1409 6.6524 88.5143 6.73296 88.861 6.8842C89.2078 7.03543 89.5209 7.25429 89.782 7.52799C90.0432 7.80169 90.2471 8.12473 90.3819 8.4782C90.5167 8.83167 90.5797 9.20848 90.5671 9.58657C90.5907 9.97527 90.5365 10.3647 90.4077 10.7322C90.2788 11.0997 90.0779 11.4378 89.8167 11.7266C89.5555 12.0155 89.2393 12.2492 88.8865 12.4142C88.5338 12.5793 88.1517 12.6722 87.7626 12.6877Z" fill="#1D1D1B"/>
<path d="M105.465 7.955C105.508 7.37602 105.43 6.79439 105.236 6.24721C105.042 5.70002 104.736 5.19926 104.338 4.77685C103.939 4.35444 103.457 4.01964 102.923 3.7938C102.388 3.56795 101.812 3.45602 101.231 3.46511H95.8379V16.6247H98.8581V12.4718H101.285C101.863 12.4717 102.435 12.3521 102.964 12.1207C103.493 11.8892 103.969 11.5507 104.362 11.1266C104.754 10.7025 105.055 10.2018 105.245 9.65605C105.434 9.11027 105.509 8.53113 105.465 7.955ZM98.8042 9.92355V6.01343H100.611C100.862 6.00123 101.113 6.04448 101.345 6.1401C101.578 6.23572 101.786 6.38136 101.956 6.56669C102.126 6.75202 102.253 6.97248 102.328 7.21242C102.403 7.45236 102.425 7.70589 102.391 7.955C102.423 8.20959 102.398 8.46808 102.319 8.71224C102.241 8.95639 102.109 9.18027 101.934 9.36802C101.759 9.55577 101.545 9.7028 101.307 9.79879C101.069 9.89479 100.813 9.93739 100.557 9.92355H98.8042Z" fill="#1D1D1B"/>
<path d="M113.676 3.2359C112.775 3.20481 111.877 3.35681 111.037 3.6827C110.197 4.00858 109.432 4.50158 108.788 5.13184C108.143 5.7621 107.634 6.51652 107.29 7.34941C106.946 8.18231 106.774 9.07635 106.786 9.97745C106.786 11.8048 107.512 13.5573 108.804 14.8494C110.096 16.1415 111.848 16.8674 113.676 16.8674C115.503 16.8674 117.255 16.1415 118.547 14.8494C119.84 13.5573 120.565 11.8048 120.565 9.97745C120.577 9.07635 120.405 8.18231 120.061 7.34941C119.717 6.51652 119.208 5.7621 118.564 5.13184C117.919 4.50158 117.154 4.00858 116.314 3.6827C115.474 3.35681 114.576 3.20481 113.676 3.2359ZM113.676 14.1168C113.155 14.0944 112.644 13.9688 112.172 13.7473C111.7 13.5258 111.277 13.2129 110.927 12.8265C110.577 12.4402 110.307 11.9882 110.133 11.4969C109.959 11.0055 109.885 10.4844 109.914 9.964C109.914 8.96631 110.31 8.00946 111.016 7.30399C111.721 6.59851 112.678 6.20219 113.676 6.20219C114.673 6.20219 115.63 6.59851 116.336 7.30399C117.041 8.00946 117.437 8.96631 117.437 9.964C117.468 10.4849 117.395 11.0066 117.222 11.4988C117.049 11.991 116.779 12.4437 116.429 12.8304C116.078 13.2171 115.654 13.53 115.182 13.7509C114.709 13.9718 114.197 14.0962 113.676 14.1168Z" fill="#1D1D1B"/>
<path d="M127.726 3.46509H122.926V16.6247H127.726C129.222 16.6247 132.701 16.2471 132.701 12.755C132.731 12.1199 132.55 11.4927 132.187 10.9709C131.824 10.4492 131.298 10.062 130.692 9.86958H130.598V9.64035H130.665C131.126 9.35881 131.505 8.96198 131.765 8.48903C132.025 8.01608 132.157 7.48343 132.148 6.94374C132.148 4.73251 130.503 3.46509 127.726 3.46509ZM125.933 6.0134H127.712C127.895 5.99172 128.079 6.01168 128.253 6.07177C128.426 6.13186 128.584 6.23053 128.714 6.36034C128.843 6.49014 128.942 6.64769 129.002 6.82114C129.062 6.9946 129.082 7.17943 129.061 7.36172C129.073 7.54186 129.046 7.72248 128.982 7.89147C128.919 8.06046 128.82 8.21392 128.692 8.34158C128.565 8.46924 128.411 8.56816 128.242 8.63171C128.073 8.69525 127.892 8.72195 127.712 8.71003H125.879L125.933 6.0134ZM128.049 14.1033H125.933V11.0561H128.063C128.267 11.0383 128.474 11.0648 128.667 11.1338C128.86 11.2028 129.037 11.3127 129.184 11.4561C129.331 11.5994 129.446 11.7727 129.52 11.9643C129.594 12.1559 129.626 12.3612 129.613 12.5662C129.619 12.7708 129.583 12.9744 129.506 13.164C129.428 13.3535 129.312 13.5249 129.165 13.667C129.018 13.8092 128.843 13.919 128.651 13.9895C128.458 14.06 128.254 14.0896 128.049 14.0763V14.1033Z" fill="#1D1D1B"/>
<path d="M141.236 3.2359C140.336 3.20481 139.438 3.35681 138.598 3.6827C137.758 4.00858 136.993 4.50158 136.348 5.13184C135.704 5.7621 135.195 6.51651 134.851 7.34941C134.507 8.18231 134.335 9.07635 134.347 9.97745C134.305 10.907 134.453 11.8353 134.78 12.7062C135.108 13.5772 135.608 14.3728 136.251 15.0451C136.895 15.7174 137.667 16.2525 138.523 16.618C139.378 16.9836 140.299 17.1721 141.23 17.1721C142.16 17.1721 143.081 16.9836 143.937 16.618C144.792 16.2525 145.565 15.7174 146.208 15.0451C146.851 14.3728 147.352 13.5772 147.679 12.7062C148.006 11.8353 148.154 10.907 148.113 9.97745C148.124 9.07752 147.953 8.18463 147.61 7.35266C147.267 6.52069 146.758 5.76691 146.116 5.13684C145.473 4.50678 144.709 4.01349 143.871 3.68677C143.032 3.36005 142.136 3.20668 141.236 3.2359ZM141.236 14.1168C140.715 14.0962 140.203 13.9718 139.73 13.7509C139.258 13.53 138.834 13.2171 138.483 12.8304C138.133 12.4437 137.864 11.991 137.69 11.4988C137.517 11.0066 137.444 10.4849 137.475 9.964C137.475 8.96631 137.871 8.00946 138.576 7.30399C139.282 6.59851 140.239 6.20219 141.236 6.20219C142.234 6.20219 143.191 6.59851 143.896 7.30399C144.602 8.00946 144.998 8.96631 144.998 9.964C145.027 10.4844 144.953 11.0055 144.779 11.4969C144.605 11.9882 144.335 12.4402 143.985 12.8265C143.635 13.2129 143.212 13.5258 142.74 13.7473C142.268 13.9688 141.757 14.0944 141.236 14.1168Z" fill="#1D1D1B"/>
<path d="M152.764 1.40225V1.30786H155.11V1.42923C155.14 1.71003 155.274 1.96963 155.484 2.15823C155.694 2.34684 155.967 2.45116 156.249 2.45116C156.532 2.45116 156.804 2.34684 157.014 2.15823C157.225 1.96963 157.358 1.71003 157.388 1.42923V1.30786H159.721V1.40225C159.721 3.209 158.103 4.22023 156.256 4.22023C154.409 4.22023 152.764 3.209 152.764 1.40225Z" fill="#1D1D1B"/>
<path d="M158.414 8.07632H158.536V16.6247H161.542V3.46509H158.441L153.601 12.0269H153.493V3.46509H150.473V16.6247H153.574L158.414 8.07632Z" fill="#1D1D1B"/>
<path d="M62.5481 31.8743C62.5842 30.9793 62.4345 30.0865 62.1085 29.2523C61.7825 28.418 61.2872 27.6603 60.6538 27.027C60.0205 26.3936 59.2628 25.8983 58.4285 25.5723C57.5942 25.2463 56.7015 25.0966 55.8065 25.1327C53.9371 25.0739 52.1185 25.7462 50.7368 27.0069L52.0851 29.2586C53.053 28.3651 54.3143 27.8567 55.6312 27.8293C56.4696 27.7693 57.3023 28.0068 57.9829 28.5C58.6636 28.9932 59.1486 29.7106 59.3526 30.526V30.7013H53.7436V33.0473H59.3256V33.2226C59.1408 34.0519 58.6654 34.7877 57.9854 35.2971C57.3054 35.8065 56.4656 36.0559 55.6178 36.0001C54.2765 35.9864 52.9811 35.5101 51.9503 34.6518L50.4941 36.7821C51.8986 38.0392 53.7194 38.731 55.6043 38.7237C56.5156 38.7512 57.4231 38.5935 58.2717 38.2602C59.1204 37.9269 59.8926 37.425 60.5417 36.7847C61.1908 36.1444 61.7033 35.3791 62.0481 34.5351C62.393 33.6911 62.5631 32.7859 62.5481 31.8743Z" fill="#1D1D1B"/>
<path d="M72.3374 38.5214H75.6947L71.9599 31.6854V31.618L75.4925 25.3618H72.27L69.4925 30.5393H67.9284V25.3618H64.9082V38.5214H67.9284V33.0742H69.4925L72.3374 38.5214Z" fill="#1D1D1B"/>
<path d="M83.406 25.1326C82.5054 25.1015 81.6078 25.2535 80.7676 25.5794C79.9274 25.9053 79.1621 26.3983 78.518 27.0286C77.8739 27.6588 77.3644 28.4132 77.0203 29.2461C76.6762 30.079 76.5047 30.9731 76.5162 31.8742C76.5162 33.7015 77.242 35.454 78.5342 36.7461C79.8263 38.0382 81.5787 38.7641 83.406 38.7641C85.2333 38.7641 86.9858 38.0382 88.2779 36.7461C89.57 35.454 90.2959 33.7015 90.2959 31.8742C90.3074 30.9731 90.1359 30.079 89.7918 29.2461C89.4477 28.4132 88.9382 27.6588 88.2941 27.0286C87.65 26.3983 86.8846 25.9053 86.0444 25.5794C85.2043 25.2535 84.3067 25.1015 83.406 25.1326ZM83.406 36.0135C82.8853 35.9911 82.3741 35.8655 81.9023 35.644C81.4304 35.4225 81.0072 35.1096 80.6573 34.7232C80.3073 34.3369 80.0376 33.885 79.8637 33.3936C79.6898 32.9022 79.6152 32.3811 79.6442 31.8607C79.6442 30.863 80.0406 29.9062 80.746 29.2007C81.4515 28.4952 82.4083 28.0989 83.406 28.0989C84.4037 28.0989 85.3606 28.4952 86.066 29.2007C86.7715 29.9062 87.1678 30.863 87.1678 31.8607C87.1969 32.3811 87.1223 32.9022 86.9484 33.3936C86.7745 33.885 86.5047 34.3369 86.1548 34.7232C85.8049 35.1096 85.3817 35.4225 84.9098 35.644C84.4379 35.8655 83.9268 35.9911 83.406 36.0135Z" fill="#1D1D1B"/>
<path d="M104.399 38.5214V25.3618H101.392V30.7281H95.6081V25.3618H92.5879V38.5214H95.6081V33.263H101.392V38.5214H104.399Z" fill="#1D1D1B"/>
<path d="M113.65 25.1326C112.75 25.1015 111.852 25.2535 111.012 25.5794C110.172 25.9053 109.406 26.3983 108.762 27.0286C108.118 27.6588 107.608 28.4132 107.264 29.2461C106.92 30.079 106.749 30.9731 106.76 31.8742C106.76 33.7015 107.486 35.454 108.778 36.7461C110.07 38.0382 111.823 38.7641 113.65 38.7641C115.477 38.7641 117.23 38.0382 118.522 36.7461C119.814 35.454 120.54 33.7015 120.54 31.8742C120.552 30.9731 120.38 30.079 120.036 29.2461C119.692 28.4132 119.182 27.6588 118.538 27.0286C117.894 26.3983 117.129 25.9053 116.289 25.5794C115.448 25.2535 114.551 25.1015 113.65 25.1326ZM113.65 36.0135C113.129 35.9911 112.618 35.8655 112.146 35.644C111.675 35.4225 111.251 35.1096 110.901 34.7232C110.552 34.3369 110.282 33.885 110.108 33.3936C109.934 32.9022 109.859 32.3811 109.888 31.8607C109.888 30.863 110.285 29.9062 110.99 29.2007C111.696 28.4952 112.652 28.0989 113.65 28.0989C114.648 28.0989 115.605 28.4952 116.31 29.2007C117.016 29.9062 117.412 30.863 117.412 31.8607C117.441 32.3811 117.366 32.9022 117.193 33.3936C117.019 33.885 116.749 34.3369 116.399 34.7232C116.049 35.1096 115.626 35.4225 115.154 35.644C114.682 35.8655 114.171 35.9911 113.65 36.0135Z" fill="#1D1D1B"/>
<path d="M133.699 38.5214H136.706L135.64 25.3618H132.297L129.681 33.2495H129.425L126.809 25.3618H123.465L122.373 38.5214H125.407L125.798 30.2158H126.081L128.238 36.3506H130.867L133.025 30.2158H133.308L133.699 38.5214Z" fill="#1D1D1B"/>
<path d="M160.881 38.5214H164.251L160.517 31.6854V31.618L164.049 25.3618H160.827L158.049 30.5393H156.485V25.3618H153.465V38.5214H156.485V33.0742H158.049L160.881 38.5214Z" fill="#1D1D1B"/>
<path d="M174.08 29.9731H174.202V38.5214H177.208V25.3618H174.107L169.267 33.9236H169.159V25.3618H166.139V38.5214H169.226L174.08 29.9731Z" fill="#1D1D1B"/>
<path d="M147.25 29.9731H147.358V38.5214H150.378V25.3618H147.264L142.437 33.9236H142.315V25.3618H139.309V38.5214H142.396L147.25 29.9731Z" fill="#1D1D1B"/>
</svg>
